<?xml version="1.0" encoding="UTF-8" standalone="no"?><!-- Generator: Gravit.io --><svg xmlns="http://www.w3.org/2000/svg" xmlns:xlink="http://www.w3.org/1999/xlink" style="isolation:isolate" viewBox="0 0 170 170" width="170pt" height="170pt"><defs><clipPath id="_clipPath_NPHacITkc31R1XkjDjSTqfXNmXrmo0t3"><rect width="170" height="170"/></clipPath></defs><g clip-path="url(#_clipPath_NPHacITkc31R1XkjDjSTqfXNmXrmo0t3)"><g><g><path d=" M 85 52 C 81.7 52 79.5 49.8 79.5 46.5 L 79.5 30 C 79.5 26.7 81.7 24.5 85 24.5 C 88.3 24.5 90.5 26.7 90.5 30 L 90.5 46.5 C 90.5 49.8 88.3 52 85 52 Z " fill="rgb(254,87,35)"/></g><g><path d=" M 35.5 63 C 33.85 63 32.75 62.45 31.65 61.35 L 20.65 50.35 C 18.45 48.15 18.45 44.85 20.65 42.65 C 22.85 40.45 26.15 40.45 28.35 42.65 L 39.35 53.65 C 41.55 55.85 41.55 59.15 39.35 61.35 C 38.25 62.45 37.15 63 35.5 63 Z " fill="rgb(254,87,35)"/></g><g><path d=" M 134.5 63 C 132.85 63 131.75 62.45 130.65 61.35 C 128.45 59.15 128.45 55.85 130.65 53.65 L 141.65 42.65 C 143.85 40.45 147.15 40.45 149.35 42.65 C 151.55 44.85 151.55 48.15 149.35 50.35 L 138.35 61.35 C 137.25 62.45 136.15 63 134.5 63 Z " fill="rgb(254,87,35)"/></g><g><path d=" M 145.5 118 C 145.5 125.7 143.85 132.85 141.65 140 C 141.1 141.65 140 142.75 138.35 143.3 C 133.95 144.4 129 145.5 123.5 145.5 C 112.5 145.5 106.45 142.2 101.5 139.45 C 97.1 136.7 93.25 134.5 85 134.5 C 76.75 134.5 72.9 136.7 68.5 139.45 C 63.55 142.2 57.5 145.5 46.5 145.5 C 41 145.5 36.05 144.4 31.65 142.75 C 30 142.2 28.9 141.1 28.35 140 C 26.15 132.85 24.5 125.7 24.5 118 C 24.5 84.45 51.45 57.5 85 57.5 C 118.55 57.5 145.5 84.45 145.5 118 Z " fill="rgb(255,193,10)"/></g><g><path d=" M 123.5 145.5 C 112.5 145.5 106.45 142.2 101.5 139.45 C 97.1 136.7 93.25 134.5 85 134.5 C 76.75 134.5 72.9 136.7 68.5 139.45 C 63.55 142.2 57.5 145.5 46.5 145.5 C 41 145.5 36.05 144.4 31.65 142.75 C 28.9 141.65 26.7 140.55 24.5 139.45 C 20.1 136.7 16.25 134.5 8 134.5 C 4.7 134.5 2.5 132.3 2.5 129 C 2.5 125.7 4.7 123.5 8 123.5 C 19 123.5 25.05 126.8 30 129.55 C 31.65 130.65 33.85 131.75 35.5 132.3 C 38.8 133.95 42.1 134.5 46.5 134.5 C 54.75 134.5 58.6 132.3 63 129.55 C 67.95 126.8 74 123.5 85 123.5 C 96 123.5 102.05 126.8 107 129.55 C 111.4 132.3 115.25 134.5 123.5 134.5 C 127.9 134.5 131.2 133.95 134.5 132.85 C 136.7 132.3 138.35 131.2 140 130.1 C 144.95 127.35 151 124.05 162 124.05 C 165.3 124.05 167.5 126.25 167.5 129.55 C 167.5 132.85 165.3 135.05 162 135.05 C 153.75 135.05 149.9 137.25 145.5 140 C 143.3 141.1 141.1 142.75 138.35 143.85 C 133.95 144.4 129 145.5 123.5 145.5 Z " fill="rgb(33,151,243)"/></g></g></g></svg>